<svg width="17" height="17" viewBox="0 0 17 17" fill="none" xmlns="http://www.w3.org/2000/svg">
<path fill-rule="evenodd" clip-rule="evenodd" d="M0.292893 14.435C-0.0976311 14.8256 -0.0976311 15.4587 0.292893 15.8492C0.683418 16.2398 1.31658 16.2398 1.70711 15.8492L8.07117 9.48517L14.5063 15.9203C14.8968 16.3108 15.53 16.3108 15.9205 15.9203C16.3111 15.5298 16.3111 14.8966 15.9205 14.5061L9.48539 8.07096L15.8492 1.70711C16.2398 1.31658 16.2398 0.683418 15.8492 0.292894C15.4587 -0.0976307 14.8256 -0.0976317 14.435 0.292894L8.07117 6.65675L1.7784 0.363969C1.38787 -0.0265555 0.754707 -0.0265555 0.364182 0.363969C-0.026342 0.754493 -0.026342 1.38766 0.364182 1.77818L6.65696 8.07096L0.292893 14.435Z" fill="#202638" fill-opacity="0.6"/>
</svg>
