<svg width="384" height="220" viewBox="0 0 384 220" fill="none" xmlns="http://www.w3.org/2000/svg">
<path d="M19.328 190C17.4507 190 15.872 189.36 14.592 188.08C13.3973 186.8 12.8 185.221 12.8 183.344V96.688C12.8 94.7253 13.3973 93.1467 14.592 91.952C15.872 90.672 17.4507 90.032 19.328 90.032C21.376 90.032 23.0827 90.8427 24.448 92.464L80.256 166.704V96.688C80.256 94.7253 80.896 93.1467 82.176 91.952C83.456 90.672 85.0347 90.032 86.912 90.032C88.8747 90.032 90.4533 90.672 91.648 91.952C92.8427 93.1467 93.44 94.7253 93.44 96.688V183.344C93.44 185.221 92.8427 186.8 91.648 188.08C90.4533 189.36 88.8747 190 86.912 190C86.0587 190 85.12 189.829 84.096 189.488C83.1573 189.061 82.3893 188.464 81.792 187.696L25.984 113.456V183.344C25.984 185.221 25.344 186.8 24.064 188.08C22.8693 189.36 21.2907 190 19.328 190ZM125.578 190C123.701 190 122.122 189.403 120.842 188.208C119.647 186.928 119.05 185.349 119.05 183.472V126.512C119.05 124.549 119.647 122.971 120.842 121.776C122.122 120.581 123.701 119.984 125.578 119.984C127.541 119.984 129.119 120.581 130.314 121.776C131.509 122.971 132.106 124.549 132.106 126.512V183.472C132.106 185.349 131.509 186.928 130.314 188.208C129.119 189.403 127.541 190 125.578 190ZM125.578 108.592C123.274 108.592 121.269 107.781 119.562 106.16C117.941 104.453 117.13 102.448 117.13 100.144C117.13 97.84 117.941 95.8773 119.562 94.256C121.269 92.5493 123.274 91.696 125.578 91.696C127.882 91.696 129.845 92.5493 131.466 94.256C133.173 95.8773 134.026 97.84 134.026 100.144C134.026 102.448 133.173 104.453 131.466 106.16C129.845 107.781 127.882 108.592 125.578 108.592ZM215.531 190.128C213.654 190.128 212.075 189.531 210.795 188.336C209.6 187.056 209.003 185.477 209.003 183.6V152.112C209.003 147.248 208.107 143.28 206.315 140.208C204.523 137.136 202.091 134.875 199.019 133.424C196.032 131.888 192.576 131.12 188.651 131.12C185.067 131.12 181.824 131.845 178.923 133.296C176.022 134.747 173.718 136.709 172.011 139.184C170.304 141.573 169.451 144.347 169.451 147.504H161.387C161.387 142.128 162.667 137.349 165.227 133.168C167.872 128.901 171.456 125.531 175.979 123.056C180.502 120.581 185.579 119.344 191.211 119.344C197.099 119.344 202.347 120.624 206.955 123.184C211.648 125.659 215.318 129.328 217.963 134.192C220.694 139.056 222.059 145.029 222.059 152.112V183.6C222.059 185.477 221.419 187.056 220.139 188.336C218.944 189.531 217.408 190.128 215.531 190.128ZM162.923 190.128C161.046 190.128 159.467 189.531 158.187 188.336C156.992 187.056 156.395 185.477 156.395 183.6V126.512C156.395 124.549 156.992 122.971 158.187 121.776C159.467 120.581 161.046 119.984 162.923 119.984C164.886 119.984 166.464 120.581 167.659 121.776C168.854 122.971 169.451 124.549 169.451 126.512V183.6C169.451 185.477 168.854 187.056 167.659 188.336C166.464 189.531 164.886 190.128 162.923 190.128ZM225.725 219.952C223.848 219.952 222.312 219.312 221.117 218.032C219.922 216.837 219.325 215.301 219.325 213.424C219.325 211.461 219.922 209.883 221.117 208.688C222.312 207.493 223.848 206.896 225.725 206.896C229.138 206.896 232.125 206.128 234.685 204.592C237.245 203.141 239.25 201.136 240.701 198.576C242.237 196.016 243.005 193.072 243.005 189.744V126.512C243.005 124.549 243.602 122.971 244.797 121.776C246.077 120.581 247.656 119.984 249.533 119.984C251.496 119.984 253.074 120.581 254.269 121.776C255.464 122.971 256.061 124.549 256.061 126.512V189.744C256.061 195.632 254.738 200.837 252.093 205.36C249.533 209.883 245.992 213.424 241.469 215.984C236.946 218.629 231.698 219.952 225.725 219.952ZM249.533 108.592C247.229 108.592 245.224 107.781 243.517 106.16C241.896 104.453 241.085 102.448 241.085 100.144C241.085 97.84 241.896 95.8773 243.517 94.256C245.224 92.5493 247.229 91.696 249.533 91.696C251.837 91.696 253.8 92.5493 255.421 94.256C257.128 95.8773 257.981 97.84 257.981 100.144C257.981 102.448 257.128 104.453 255.421 106.16C253.8 107.781 251.837 108.592 249.533 108.592ZM304.454 190.512C298.225 190.512 292.635 188.976 287.686 185.904C282.737 182.747 278.811 178.523 275.91 173.232C273.094 167.856 271.686 161.797 271.686 155.056C271.686 148.315 273.222 142.256 276.294 136.88C279.451 131.504 283.675 127.28 288.966 124.208C294.342 121.051 300.358 119.472 307.014 119.472C313.67 119.472 319.643 121.051 324.934 124.208C330.225 127.28 334.406 131.504 337.478 136.88C340.635 142.256 342.214 148.315 342.214 155.056H337.222C337.222 161.797 335.771 167.856 332.87 173.232C330.054 178.523 326.171 182.747 321.222 185.904C316.273 188.976 310.683 190.512 304.454 190.512ZM307.014 178.992C311.366 178.992 315.249 177.968 318.662 175.92C322.075 173.787 324.763 170.928 326.726 167.344C328.689 163.675 329.67 159.579 329.67 155.056C329.67 150.448 328.689 146.352 326.726 142.768C324.763 139.099 322.075 136.24 318.662 134.192C315.249 132.059 311.366 130.992 307.014 130.992C302.747 130.992 298.865 132.059 295.366 134.192C291.953 136.24 289.222 139.099 287.174 142.768C285.211 146.352 284.23 150.448 284.23 155.056C284.23 159.579 285.211 163.675 287.174 167.344C289.222 170.928 291.953 173.787 295.366 175.92C298.865 177.968 302.747 178.992 307.014 178.992ZM335.686 190.128C333.809 190.128 332.23 189.531 330.95 188.336C329.755 187.056 329.158 185.477 329.158 183.6V164.016L331.59 150.448L342.214 155.056V183.6C342.214 185.477 341.574 187.056 340.294 188.336C339.099 189.531 337.563 190.128 335.686 190.128Z" fill="#12001A"/>
<path d="M196.496 87.5154C195.605 87.6056 194.787 87.3666 194.044 86.7986C193.342 86.2263 192.945 85.4731 192.85 84.5392L188.489 41.4313C188.395 40.4974 188.634 39.6798 189.206 38.9787C189.821 38.2732 190.574 37.8754 191.465 37.7852C192.399 37.6907 193.217 37.9297 193.918 38.502C194.619 39.0743 195.017 39.8274 195.111 40.7613L197.044 59.8638L215.988 36.6552C216.446 36.0943 216.879 35.7074 217.286 35.4947C217.689 35.2395 218.124 35.0883 218.591 35.041C219.652 34.9337 220.448 35.1747 220.98 35.7642C221.511 36.3538 221.758 37.1007 221.721 38.005C221.68 38.8669 221.356 39.693 220.75 40.4834L206.162 58.4268L224.997 79.2929C225.58 79.963 225.872 80.7269 225.872 81.5845C225.869 82.3996 225.643 83.1301 225.194 83.7759C224.74 84.3793 224.089 84.724 223.24 84.8098C222.051 84.9301 221.091 84.5555 220.36 83.686L202.041 63.4752L197.92 68.5236L199.472 83.8693C199.567 84.8032 199.328 85.6207 198.756 86.3219C198.183 87.0231 197.43 87.4209 196.496 87.5154Z" fill="#1EB420"/>
<path d="M245.511 82.1766C244.604 81.9336 243.924 81.4203 243.472 80.6364C243.019 79.8526 242.915 79.0073 243.158 78.1006L254.372 36.249C254.626 35.3011 255.139 34.6215 255.912 34.2102C256.696 33.7576 257.541 33.6528 258.448 33.8958C259.395 34.1497 260.075 34.6631 260.486 35.4359C260.95 36.1786 261.055 37.0238 260.801 37.9717L249.587 79.8233C249.344 80.73 248.83 81.4096 248.047 81.8622C247.304 82.3258 246.459 82.4306 245.511 82.1766Z" fill="#0300F4"/>
<path d="M275.768 105.169C274.829 105.169 274.04 104.849 273.4 104.209C272.76 103.569 272.44 102.779 272.44 101.841V58.5126C272.44 57.5313 272.76 56.7419 273.4 56.1446C274.04 55.5046 274.829 55.1846 275.768 55.1846H287.352C291.021 55.1846 294.349 55.8033 297.336 57.0406C300.365 58.2353 302.989 59.9633 305.208 62.2246C307.426 64.4433 309.133 67.0673 310.328 70.0966C311.522 73.1259 312.12 76.4753 312.12 80.1446C312.12 83.8139 311.522 87.1846 310.328 90.2566C309.133 93.2859 307.426 95.9313 305.208 98.1926C302.989 100.411 300.365 102.139 297.336 103.377C294.349 104.571 291.021 105.169 287.352 105.169H275.768ZM279.096 99.2806H287.352C290.936 99.2806 294.093 98.4699 296.824 96.8486C299.597 95.1846 301.773 92.9233 303.352 90.0646C304.93 87.1633 305.72 83.8566 305.72 80.1446C305.72 76.3899 304.93 73.0833 303.352 70.2246C301.773 67.3659 299.597 65.1259 296.824 63.5046C294.093 61.8833 290.936 61.0726 287.352 61.0726H279.096V99.2806Z" fill="#812A9C"/>
<path d="M332.168 100.711C329.803 99.3459 327.763 97.675 326.046 95.6987C324.33 93.7223 323.061 91.6104 322.24 89.3628C321.419 87.1153 321.141 84.9099 321.404 82.7465C321.483 81.7572 321.899 81.0367 322.652 80.5849C323.443 80.1545 324.353 80.1135 325.384 80.4621C326.134 80.6983 326.717 81.1825 327.132 81.9147C327.605 82.6312 327.805 83.4365 327.732 84.3306C327.642 85.5104 327.872 86.7762 328.422 88.1282C329.008 89.5015 329.884 90.8443 331.047 92.1566C332.211 93.469 333.587 94.5838 335.176 95.5012C336.95 96.5252 338.736 97.1867 340.534 97.4858C342.369 97.8062 344.047 97.7158 345.568 97.2145C347.11 96.6763 348.329 95.6312 349.225 94.0793C350.356 92.1209 350.593 89.9178 349.937 87.4698C349.319 85.0433 347.361 82.6319 344.064 80.2357C339.738 77.147 336.914 73.7183 335.592 69.9496C334.269 66.181 334.568 62.6339 336.488 59.3084C337.896 56.8696 339.775 55.1951 342.123 54.2847C344.472 53.3743 347.066 53.1477 349.906 53.6049C352.783 54.0834 355.662 55.1547 358.544 56.8187C360.798 58.12 362.575 59.5648 363.875 61.1529C365.212 62.7624 366.189 64.4841 366.805 66.3179C367.422 68.1518 367.754 70.0928 367.803 72.1412C367.851 73.2527 367.607 74.146 367.069 74.821C366.59 75.4804 365.919 75.832 365.056 75.8758C364.098 75.9139 363.287 75.5689 362.624 74.8409C361.96 74.1129 361.628 73.2806 361.626 72.3439C361.654 70.931 361.456 69.6097 361.033 68.38C360.61 67.1503 359.943 66.0016 359.032 64.9338C358.142 63.8291 356.922 62.8287 355.37 61.9327C352.657 60.3171 350.067 59.5117 347.601 59.5166C345.156 59.4846 343.304 60.5586 342.046 62.7386C341.406 63.8472 341.064 65.0787 341.021 66.4333C341.036 67.7723 341.588 69.2487 342.676 70.8623C343.802 72.4973 345.72 74.2947 348.432 76.2543C352.573 79.2363 355.212 82.5584 356.349 86.2203C357.545 89.8667 357.087 93.5189 354.975 97.177C353.759 99.2832 352.259 100.856 350.477 101.896C348.731 102.957 346.809 103.597 344.713 103.815C342.674 104.018 340.564 103.834 338.38 103.263C336.234 102.714 334.163 101.863 332.168 100.711Z" fill="#E56614"/>
</svg>
