<svg width="10" height="11" viewBox="0 0 10 11" fill="none" xmlns="http://www.w3.org/2000/svg">
<path d="M1.176 11C1.01733 11 0.891333 10.9533 0.798 10.86C0.714 10.7667 0.667333 10.65 0.658 10.51C0.648667 10.37 0.690667 10.2393 0.784 10.118L4.438 5.134L4.942 4.728L8.218 0.262C8.32067 0.131333 8.46067 0.0659997 8.638 0.0659997C8.78733 0.0659997 8.904 0.117333 8.988 0.219999C9.08133 0.313333 9.13267 0.429999 9.142 0.569999C9.15133 0.700666 9.11867 0.817333 9.044 0.92L5.6 5.596L5.124 5.988L1.568 10.832C1.46533 10.944 1.33467 11 1.176 11ZM8.75 11C8.67533 11 8.60067 10.986 8.526 10.958C8.45133 10.9207 8.386 10.8693 8.33 10.804L4.844 5.974L4.41 5.652L1.008 0.92C0.924 0.807999 0.886667 0.686666 0.896 0.555999C0.905333 0.415999 0.952 0.299333 1.036 0.206C1.12933 0.112666 1.25067 0.0659997 1.4 0.0659997C1.57733 0.0659997 1.71733 0.131333 1.82 0.262L5.11 4.812L5.502 5.078L9.142 10.118C9.226 10.23 9.26333 10.356 9.254 10.496C9.254 10.636 9.20733 10.7573 9.114 10.86C9.03 10.9533 8.90867 11 8.75 11Z" fill="#FDF9FF"/>
</svg>
